<svg width="1920" height="635" viewBox="0 0 1920 635" fill="none" xmlns="http://www.w3.org/2000/svg">
<path d="M885.276 90.3705L649.463 333.308L859.729 552.323C868.163 575.049 901.551 595.874 953.269 610.665C1001.27 623.931 1061.45 631.121 1123.45 630.998C1187.31 625.791 1246.14 615.125 1294.32 600.022C1342.49 584.92 1378.38 565.887 1398.56 544.748L1830.89 89.706C1851.37 68.6658 1887.38 49.7397 1935.52 34.7172C1983.66 19.6947 2042.34 9.07223 2106 3.85405C2075.8 1.28954 2044.78 -0.00491793 2013.64 1.40401e-05H1251.96C1170.44 0.0191503 1091.03 8.77648 1025.14 25.0138C959.258 41.251 910.291 64.1325 885.276 90.3705Z" fill="#EA4959" fill-opacity="0.03"/>
<path d="M-129.332 203.721C-252.409 203.742 -371.064 188.179 -462 160.088L-95.9471 544.674C-70.8602 570.934 -21.8366 593.825 44.0771 610.055C109.991 626.284 189.4 635.018 270.891 635H1035.99C1067.08 634.974 1098.05 633.724 1128.29 631.275C1064.7 626.029 1006.1 615.388 957.998 600.354C909.901 585.32 873.89 566.387 853.355 545.339L421.319 89.7159C408.689 76.565 389.998 64.1733 365.939 53C353.276 94.4531 295.579 132.833 204.054 160.686C112.529 188.539 -6.29089 203.877 -129.332 203.721Z" fill="#FF515B" fill-opacity="0.05"/>
</svg>
