<svg width="1169" height="829" viewBox="0 0 1169 829" fill="none" xmlns="http://www.w3.org/2000/svg">
<g opacity="0.05">
<circle cx="1020.99" cy="4.98574" r="4.98574" fill="#0F001A"/>
<circle cx="1020.99" cy="33.5915" r="4.98574" fill="#0F001A"/>
<circle cx="1020.99" cy="62.1971" r="4.98574" fill="#0F001A"/>
<circle cx="1020.99" cy="90.8028" r="4.98574" fill="#0F001A"/>
<circle cx="1020.99" cy="119.409" r="4.98574" fill="#0F001A"/>
<circle cx="1020.99" cy="148.014" r="4.98574" fill="#0F001A"/>
<circle cx="1049.59" cy="4.98574" r="4.98574" fill="#0F001A"/>
<circle cx="1049.59" cy="33.5915" r="4.98574" fill="#0F001A"/>
<circle cx="1049.59" cy="62.1971" r="4.98574" fill="#0F001A"/>
<circle cx="1049.59" cy="90.8028" r="4.98574" fill="#0F001A"/>
<circle cx="1049.59" cy="119.409" r="4.98574" fill="#0F001A"/>
<circle cx="1049.59" cy="148.014" r="4.98574" fill="#0F001A"/>
<circle cx="1078.2" cy="4.98574" r="4.98574" fill="#0F001A"/>
<circle cx="1078.2" cy="33.5915" r="4.98574" fill="#0F001A"/>
<circle cx="1078.2" cy="62.1971" r="4.98574" fill="#0F001A"/>
<circle cx="1078.2" cy="90.8028" r="4.98574" fill="#0F001A"/>
<circle cx="1078.2" cy="119.409" r="4.98574" fill="#0F001A"/>
<circle cx="1078.2" cy="148.014" r="4.98574" fill="#0F001A"/>
<circle cx="1106.8" cy="4.98574" r="4.98574" fill="#0F001A"/>
<circle cx="1135.41" cy="4.98574" r="4.98574" fill="#0F001A"/>
<circle cx="1164.02" cy="4.98574" r="4.98574" fill="#0F001A"/>
<circle cx="1106.8" cy="33.5915" r="4.98574" fill="#0F001A"/>
<circle cx="1135.41" cy="33.5915" r="4.98574" fill="#0F001A"/>
<circle cx="1164.02" cy="33.5915" r="4.98574" fill="#0F001A"/>
<circle cx="1106.8" cy="62.1971" r="4.98574" fill="#0F001A"/>
<circle cx="1135.41" cy="62.1971" r="4.98574" fill="#0F001A"/>
<circle cx="1164.02" cy="62.1971" r="4.98574" fill="#0F001A"/>
<circle cx="1106.8" cy="90.8028" r="4.98574" fill="#0F001A"/>
<circle cx="1106.8" cy="119.409" r="4.98574" fill="#0F001A"/>
<circle cx="1106.8" cy="148.014" r="4.98574" fill="#0F001A"/>
<circle cx="1135.41" cy="90.8028" r="4.98574" fill="#0F001A"/>
<circle cx="1135.41" cy="119.409" r="4.98574" fill="#0F001A"/>
<circle cx="1135.41" cy="148.014" r="4.98574" fill="#0F001A"/>
<circle cx="1164.02" cy="90.8028" r="4.98574" fill="#0F001A"/>
<circle cx="1164.02" cy="119.409" r="4.98574" fill="#0F001A"/>
<circle cx="1164.02" cy="148.014" r="4.98574" fill="#0F001A"/>
</g>
<g opacity="0.05">
<circle cx="4.98574" cy="680.986" r="4.98574" fill="#0F001A"/>
<circle cx="4.98574" cy="709.591" r="4.98574" fill="#0F001A"/>
<circle cx="4.98574" cy="738.197" r="4.98574" fill="#0F001A"/>
<circle cx="4.98574" cy="766.803" r="4.98574" fill="#0F001A"/>
<circle cx="4.98574" cy="795.409" r="4.98574" fill="#0F001A"/>
<circle cx="4.98574" cy="824.014" r="4.98574" fill="#0F001A"/>
<circle cx="33.5912" cy="680.986" r="4.98574" fill="#0F001A"/>
<circle cx="33.5912" cy="709.591" r="4.98574" fill="#0F001A"/>
<circle cx="33.5912" cy="738.197" r="4.98574" fill="#0F001A"/>
<circle cx="33.5912" cy="766.803" r="4.98574" fill="#0F001A"/>
<circle cx="33.5912" cy="795.409" r="4.98574" fill="#0F001A"/>
<circle cx="33.5912" cy="824.014" r="4.98574" fill="#0F001A"/>
<circle cx="62.1967" cy="680.986" r="4.98574" fill="#0F001A"/>
<circle cx="62.1967" cy="709.591" r="4.98574" fill="#0F001A"/>
<circle cx="62.1967" cy="738.197" r="4.98574" fill="#0F001A"/>
<circle cx="62.1967" cy="766.803" r="4.98574" fill="#0F001A"/>
<circle cx="62.1967" cy="795.409" r="4.98574" fill="#0F001A"/>
<circle cx="62.1967" cy="824.014" r="4.98574" fill="#0F001A"/>
<circle cx="90.8021" cy="680.986" r="4.98574" fill="#0F001A"/>
<circle cx="119.408" cy="680.986" r="4.98574" fill="#0F001A"/>
<circle cx="148.015" cy="680.986" r="4.98574" fill="#0F001A"/>
<circle cx="90.8021" cy="709.591" r="4.98574" fill="#0F001A"/>
<circle cx="119.408" cy="709.591" r="4.98574" fill="#0F001A"/>
<circle cx="148.015" cy="709.591" r="4.98574" fill="#0F001A"/>
<circle cx="90.8021" cy="738.197" r="4.98574" fill="#0F001A"/>
<circle cx="119.408" cy="738.197" r="4.98574" fill="#0F001A"/>
<circle cx="148.015" cy="738.197" r="4.98574" fill="#0F001A"/>
<circle cx="90.8021" cy="766.803" r="4.98574" fill="#0F001A"/>
<circle cx="90.8021" cy="795.409" r="4.98574" fill="#0F001A"/>
<circle cx="90.8021" cy="824.014" r="4.98574" fill="#0F001A"/>
<circle cx="119.408" cy="766.803" r="4.98574" fill="#0F001A"/>
<circle cx="119.408" cy="795.409" r="4.98574" fill="#0F001A"/>
<circle cx="119.408" cy="824.014" r="4.98574" fill="#0F001A"/>
<circle cx="148.015" cy="766.803" r="4.98574" fill="#0F001A"/>
<circle cx="148.015" cy="795.409" r="4.98574" fill="#0F001A"/>
<circle cx="148.015" cy="824.014" r="4.98574" fill="#0F001A"/>
</g>
</svg>
