<svg width="184" height="48" viewBox="0 0 184 48" fill="none" xmlns="http://www.w3.org/2000/svg">
<g clip-path="url(#clip0)">
<path d="M27.909 13.8523C26.6046 17.8039 25.3175 21.7468 24.0479 25.6809C25.2045 29.2365 26.3567 32.792 27.5047 36.3476C27.6271 37.4097 28.1379 38.3889 28.9388 39.0964C29.7396 39.804 30.7738 40.1898 31.842 40.1795C32.8989 39.9308 33.8741 39.414 34.6737 38.6788C35.4733 37.9437 36.0704 37.015 36.4076 35.982L43.5821 13.8262C43.9163 12.8058 44.5039 11.8872 45.29 11.1564C46.076 10.4257 47.0346 9.90672 48.0759 9.6483C47.5792 9.52234 47.0687 9.45875 46.5562 9.45899H33.9161C32.5764 9.45918 31.2713 9.88457 30.1884 10.674C29.1055 11.4634 28.3006 12.5762 27.8895 13.8523" fill="#E6E7E8"/>
<path d="M11.1988 19.3816C9.17311 19.3814 7.22094 18.6222 5.72656 17.2535L11.7401 35.9626C12.1525 37.2392 12.9586 38.3522 14.0426 39.1416C15.1266 39.9309 16.4327 40.3561 17.7732 40.3559H30.3482C30.8601 40.3549 31.3702 40.2935 31.8679 40.1731C30.8299 39.91 29.8754 39.3884 29.0931 38.6568C28.3108 37.9251 27.7261 37.0073 27.3936 35.9887L20.2191 13.8328C20.0102 13.1924 19.7021 12.5889 19.3059 12.0442C19.0996 14.0538 18.1569 15.9157 16.6598 17.2707C15.1627 18.6257 13.2172 19.3777 11.1988 19.3816Z" fill="white"/>
<path d="M22.4037 11.2085C22.405 13.4272 21.7488 15.5964 20.518 17.4417C19.2872 19.287 17.5373 20.7254 15.4895 21.5751C13.4418 22.4247 11.1882 22.6474 9.014 22.2149C6.83978 21.7823 4.8426 20.7141 3.27512 19.1452C1.70764 17.5764 0.640307 15.5775 0.208157 13.4014C-0.223993 11.2252 -0.00154113 8.96974 0.847368 6.9202C1.69628 4.87066 3.1335 3.11918 4.97719 1.88735C6.82089 0.655527 8.98822 -0.00128915 11.205 1.89964e-06C14.174 0.00345727 17.0204 1.18546 19.1199 3.28671C21.2193 5.38796 22.4003 8.23687 22.4037 11.2085ZM6.09802 11.2085C6.09673 12.2223 6.39592 13.2137 6.95772 14.0573C7.51953 14.9008 8.31871 15.5586 9.25415 15.9475C10.1896 16.3364 11.2193 16.4388 12.2129 16.2418C13.2065 16.0448 14.1194 15.5573 14.8361 14.8409C15.5528 14.1244 16.041 13.2114 16.2391 12.2171C16.4372 11.2229 16.3362 10.1922 15.9489 9.25549C15.5616 8.31874 14.9053 7.51803 14.0632 6.95466C13.2211 6.39129 12.2309 6.09058 11.218 6.09058C9.86176 6.0923 8.56146 6.63185 7.60184 7.59109C6.64221 8.55032 6.10147 9.85107 6.09802 11.2085Z" fill="white"/>
<path d="M59.9004 39.6181C60.1131 39.3699 60.2646 39.0753 60.3428 38.7578C60.421 38.4403 60.4236 38.1089 60.3504 37.7903C60.2744 38.4154 60.1233 39.0292 59.9004 39.6181Z" fill="white"/>
<path d="M38.5529 9.45899H34.0721C33.5575 9.45875 33.0449 9.52233 32.5459 9.6483C33.5884 9.90574 34.5484 10.4242 35.3356 11.1551C36.1228 11.8859 36.7115 12.8051 37.0463 13.8262L44.149 35.9037C44.324 34.345 44.9445 32.87 45.936 31.6554C46.9276 30.4408 48.2481 29.5382 49.7393 29.0559C51.2304 28.5736 52.829 28.5319 54.3432 28.936C55.8574 29.3401 57.223 30.1728 58.2763 31.3341L52.6606 13.9045C52.2502 12.6261 51.4449 11.5111 50.3606 10.7204C49.2763 9.92963 47.9691 9.50394 46.6275 9.50468H38.5529V9.45899Z" fill="white"/>
<path d="M63.4623 36.7849C63.4636 39.0033 62.8075 41.1723 61.5771 43.0174C60.3466 44.8626 58.597 46.301 56.5496 47.1509C54.5022 48.0007 52.249 48.2237 50.075 47.7917C47.901 47.3598 45.9038 46.2921 44.336 44.7239C42.7683 43.1558 41.7004 41.1575 41.2675 38.9818C40.8347 36.8061 41.0562 34.5508 41.9041 32.5011C42.752 30.4515 44.1882 28.6996 46.031 27.4669C47.8739 26.2343 50.0406 25.5764 52.257 25.5764C55.2267 25.5799 58.0738 26.7617 60.1742 28.8627C62.2747 30.9638 63.4571 33.8127 63.4623 36.7849ZM47.1566 36.7849C47.1566 37.7984 47.4569 38.7892 48.0195 39.6319C48.5821 40.4746 49.3817 41.1314 50.3173 41.5193C51.2528 41.9071 52.2823 42.0086 53.2755 41.8109C54.2686 41.6131 55.1809 41.1251 55.897 40.4084C56.613 39.6918 57.1007 38.7787 57.2982 37.7846C57.4958 36.7906 57.3944 35.7602 57.0069 34.8239C56.6193 33.8875 55.9631 33.0872 55.1211 32.5241C54.2791 31.961 53.2892 31.6605 52.2766 31.6605C50.9192 31.6622 49.6179 32.2026 48.6581 33.1633C47.6983 34.1239 47.1583 35.4263 47.1566 36.7849Z" fill="white"/>
<path d="M76.3337 23.8786C75.4118 23.8786 74.5354 23.7551 73.7045 23.5082C72.8735 23.2483 71.9452 22.8584 70.9195 22.3386V19.6292C72.8281 20.8117 74.6458 21.403 76.3726 21.403C77.1387 21.403 77.7359 21.2731 78.1644 21.0132C78.5928 20.7403 78.8071 20.3634 78.8071 19.8826C78.8071 19.4538 78.5993 19.1159 78.1838 18.869C77.7814 18.6091 77.1516 18.3622 76.2947 18.1283C74.6847 17.6864 73.6136 17.3421 73.0813 17.0952C71.5362 16.3675 70.7637 15.2629 70.7637 13.7815C70.7637 12.6119 71.27 11.6763 72.2828 10.9745C73.2955 10.2598 74.5484 9.90246 76.0415 9.90246C77.7943 9.90246 79.3913 10.4028 80.8325 11.4034V14.1128C79.1706 12.9563 77.5671 12.378 76.0221 12.378C75.2301 12.378 74.5939 12.5145 74.1135 12.7873C73.6331 13.0472 73.3929 13.4241 73.3929 13.9179C73.3929 14.3337 73.6266 14.6586 74.094 14.8925C74.5614 15.1134 75.295 15.3474 76.2947 15.5943C76.905 15.7502 77.4048 15.8931 77.7943 16.0231C78.1838 16.14 78.6318 16.3155 79.1381 16.5494C79.6575 16.7833 80.06 17.0432 80.3456 17.3291C80.6443 17.602 80.8974 17.9593 81.1052 18.4012C81.3259 18.843 81.4363 19.3433 81.4363 19.9021C81.4363 21.1496 80.9559 22.1242 79.9951 22.826C79.0343 23.5277 77.8138 23.8786 76.3337 23.8786Z" fill="white"/>
<path d="M87.9094 23.8786C86.4293 23.8786 85.1699 23.3588 84.1312 22.3192C83.1055 21.2666 82.5926 20.0125 82.5926 18.5571C82.5926 17.0627 83.112 15.8022 84.1507 14.7756C85.2023 13.736 86.4553 13.2162 87.9094 13.2162C89.1818 13.2162 90.3049 13.632 91.2787 14.4637C92.2655 15.2824 92.8757 16.309 93.1094 17.5435C93.2652 18.2322 93.2717 18.882 93.1289 19.4927H85.105C85.2478 20.1685 85.5724 20.6948 86.0787 21.0716C86.5851 21.4485 87.1953 21.6369 87.9094 21.6369C88.9871 21.6369 89.87 21.2796 90.5581 20.5648L92.7783 21.1691C92.3758 21.9878 91.7072 22.644 90.7723 23.1378C89.8505 23.6316 88.8962 23.8786 87.9094 23.8786ZM85.105 17.563H90.6555C90.5127 16.9652 90.1946 16.4649 89.7012 16.0621C89.2078 15.6592 88.6041 15.4578 87.89 15.4578C87.1759 15.4578 86.5656 15.6592 86.0593 16.0621C85.5659 16.4649 85.2478 16.9652 85.105 17.563Z" fill="white"/>
<path d="M97.0803 23.7226L93.8279 13.3916H96.5155L99.1447 22.1047L101.754 13.3916H104.461L101.19 23.7226H97.0803Z" fill="white"/>
<path d="M108.487 11.8322C108.176 12.1311 107.799 12.2805 107.358 12.2805C106.916 12.2805 106.54 12.1311 106.228 11.8322C105.916 11.5203 105.761 11.1435 105.761 10.7017C105.761 10.2598 105.916 9.88297 106.228 9.57109C106.54 9.25921 106.916 9.10327 107.358 9.10327C107.799 9.10327 108.176 9.25921 108.487 9.57109C108.799 9.88297 108.955 10.2598 108.955 10.7017C108.955 11.1435 108.799 11.5203 108.487 11.8322ZM106.072 23.7226V13.3916H108.604V23.7226H106.072Z" fill="white"/>
<path d="M110.71 23.7226V13.3916H113.241V14.5417C114.033 13.658 115.053 13.2162 116.299 13.2162C117.481 13.2162 118.493 13.593 119.337 14.3467C120.181 15.1004 120.603 16.1011 120.603 17.3486V23.7226H118.071V18.0113C118.071 17.2706 117.851 16.6793 117.409 16.2375C116.968 15.7957 116.429 15.5748 115.793 15.5748C115.04 15.5748 114.423 15.8477 113.943 16.3934C113.475 16.9262 113.241 17.5955 113.241 18.4012V23.7226H110.71Z" fill="white"/>
<path d="M127.431 23.8786C125.951 23.8786 124.691 23.3588 123.653 22.3192C122.627 21.2666 122.114 20.0125 122.114 18.5571C122.114 17.0627 122.634 15.8022 123.672 14.7756C124.724 13.736 125.977 13.2162 127.431 13.2162C128.535 13.2162 129.521 13.5281 130.391 14.1518C131.274 14.7756 131.91 15.5878 132.3 16.5884L129.982 17.2316C129.749 16.7118 129.405 16.296 128.95 15.9841C128.509 15.6592 128.002 15.4968 127.431 15.4968C126.613 15.4968 125.918 15.8022 125.347 16.4129C124.776 17.0107 124.49 17.7254 124.49 18.5571C124.49 19.3888 124.776 20.1035 125.347 20.7013C125.918 21.299 126.613 21.5979 127.431 21.5979C128.015 21.5979 128.528 21.442 128.97 21.1301C129.424 20.8052 129.762 20.3829 129.982 19.8631L132.3 20.5258C131.91 21.5265 131.274 22.3386 130.391 22.9624C129.521 23.5732 128.535 23.8786 127.431 23.8786Z" fill="white"/>
<path d="M138.943 23.7226L143.676 10.0779H147.746L152.401 23.7226H149.674L148.72 20.8767H142.644L141.67 23.7226H138.943ZM143.423 18.4986H147.941L145.721 11.7542L143.423 18.4986Z" fill="white"/>
<path d="M154.249 27.816L155.904 23.6641L151.639 13.3916H154.307L157.189 20.7403L159.916 13.3916H162.584L156.858 27.816H154.249Z" fill="white"/>
<path d="M167 23.8786C166.571 23.8786 166.149 23.8266 165.734 23.7226C165.318 23.6316 164.903 23.4757 164.487 23.2548C164.085 23.0209 163.754 22.683 163.494 22.2412C163.247 21.7864 163.124 21.2536 163.124 20.6428C163.111 19.5642 163.474 18.765 164.215 18.2452C164.955 17.7124 165.98 17.446 167.292 17.446L170.33 17.4265V16.8808C170.33 16.361 170.122 15.9776 169.707 15.7307C169.291 15.4838 168.746 15.3603 168.071 15.3603C166.798 15.3603 166.039 15.7762 165.792 16.6079L163.377 16.6274C163.39 15.6008 163.844 14.7756 164.74 14.1518C165.636 13.5281 166.727 13.2162 168.012 13.2162C169.311 13.2162 170.421 13.5281 171.343 14.1518C172.264 14.7756 172.725 15.5878 172.725 16.5884V23.7226H170.33V22.4361C170.044 22.8 169.609 23.1313 169.025 23.4302C168.454 23.7291 167.779 23.8786 167 23.8786ZM167.214 21.7929C167.993 21.7929 168.707 21.546 169.356 21.0521C170.005 20.5453 170.33 19.9411 170.33 19.2393H167.759C167.032 19.2393 166.487 19.3758 166.123 19.6487C165.76 19.9216 165.604 20.2724 165.656 20.7013C165.734 21.429 166.253 21.7929 167.214 21.7929Z" fill="white"/>
<path d="M174.59 23.7421V21.1301L179.887 15.7502H174.61V13.3916H182.984V15.8087L177.55 21.3835H182.945V23.7421H174.59Z" fill="white"/>
</g>
<defs>
<clipPath id="clip0">
<rect width="184" height="48" fill="white"/>
</clipPath>
</defs>
</svg>
