<svg width="184" height="51" viewBox="0 0 184 51" fill="none" xmlns="http://www.w3.org/2000/svg">
<g clip-path="url(#clip0)">
<path d="M79.7025 25.7854C78.8094 25.7854 77.9602 25.6656 77.1551 25.4259C76.3499 25.1735 75.4505 24.7951 74.4566 24.2904V21.6598C76.3059 22.8079 78.0671 23.382 79.7403 23.382C80.4825 23.382 81.0612 23.2558 81.4763 23.0035C81.8915 22.7386 82.0991 22.3727 82.0991 21.9059C82.0991 21.4895 81.8978 21.1615 81.4952 20.9218C81.1052 20.6694 80.4951 20.4297 79.6648 20.2026C78.1049 19.7737 77.067 19.4393 76.5512 19.1996C75.0542 18.4931 74.3057 17.4207 74.3057 15.9824C74.3057 14.8469 74.7963 13.9385 75.7775 13.2572C76.7588 12.5633 77.9728 12.2164 79.4195 12.2164C81.1178 12.2164 82.6652 12.7021 84.0616 13.6736V16.3041C82.4513 15.1813 80.8977 14.6198 79.4006 14.6198C78.6332 14.6198 78.0168 14.7523 77.5513 15.0172C77.0859 15.2696 76.8531 15.6355 76.8531 16.1149C76.8531 16.5186 77.0796 16.834 77.5325 17.0611C77.9854 17.2756 78.6961 17.5027 79.6648 17.7424C80.2561 17.8938 80.7404 18.0326 81.1178 18.1588C81.4952 18.2723 81.9292 18.4426 82.4199 18.6697C82.9231 18.8968 83.313 19.1492 83.5898 19.4267C83.8792 19.6917 84.1245 20.0386 84.3257 20.4676C84.5396 20.8965 84.6465 21.3823 84.6465 21.9248C84.6465 23.136 84.1811 24.0822 83.2501 24.7635C82.3192 25.4448 81.1367 25.7854 79.7025 25.7854Z" fill="#3D3D3D"/>
<path d="M90.9185 25.7854C89.4844 25.7854 88.2641 25.2808 87.2577 24.2715C86.2639 23.2495 85.767 22.032 85.767 20.619C85.767 19.1681 86.2702 17.9443 87.2766 16.9476C88.2956 15.9383 89.5096 15.4336 90.9185 15.4336C92.1514 15.4336 93.2396 15.8373 94.1831 16.6448C95.1392 17.4396 95.7304 18.4363 95.9569 19.6349C96.1078 20.3036 96.1141 20.9344 95.9757 21.5274H88.2012C88.3396 22.1834 88.6541 22.6944 89.1447 23.0603C89.6354 23.4262 90.2266 23.6091 90.9185 23.6091C91.9627 23.6091 92.8181 23.2621 93.4849 22.5682L95.6361 23.1549C95.2461 23.9497 94.5982 24.5869 93.6924 25.0663C92.7993 25.5457 91.8746 25.7854 90.9185 25.7854ZM88.2012 19.6538H93.5792C93.4408 19.0735 93.1326 18.5877 92.6546 18.1966C92.1765 17.8055 91.5916 17.6099 90.8997 17.6099C90.2077 17.6099 89.6165 17.8055 89.1259 18.1966C88.6478 18.5877 88.3396 19.0735 88.2012 19.6538Z" fill="#3D3D3D"/>
<path d="M99.8043 25.6341L96.653 15.6039H99.2571L101.805 24.0633L104.333 15.6039H106.956L103.786 25.6341H99.8043Z" fill="#3D3D3D"/>
<path d="M110.857 14.0899C110.555 14.3801 110.19 14.5252 109.762 14.5252C109.334 14.5252 108.97 14.3801 108.668 14.0899C108.366 13.7871 108.215 13.4213 108.215 12.9923C108.215 12.5633 108.366 12.1975 108.668 11.8947C108.97 11.5919 109.334 11.4405 109.762 11.4405C110.19 11.4405 110.555 11.5919 110.857 11.8947C111.159 12.1975 111.31 12.5633 111.31 12.9923C111.31 13.4213 111.159 13.7871 110.857 14.0899ZM108.517 25.6341V15.6039H110.97V25.6341H108.517Z" fill="#3D3D3D"/>
<path d="M113.01 25.6341V15.6039H115.463V16.7205C116.231 15.8626 117.218 15.4336 118.426 15.4336C119.571 15.4336 120.552 15.7995 121.37 16.5312C122.187 17.263 122.596 18.2345 122.596 19.4456V25.6341H120.143V20.0891C120.143 19.3699 119.929 18.7959 119.501 18.3669C119.074 17.938 118.552 17.7235 117.935 17.7235C117.206 17.7235 116.608 17.9884 116.143 18.5183C115.69 19.0356 115.463 19.6854 115.463 20.4676V25.6341H113.01Z" fill="#3D3D3D"/>
<path d="M129.212 25.7854C127.778 25.7854 126.557 25.2808 125.551 24.2715C124.557 23.2495 124.06 22.032 124.06 20.619C124.06 19.1681 124.563 17.9443 125.57 16.9476C126.589 15.9383 127.803 15.4336 129.212 15.4336C130.281 15.4336 131.237 15.7364 132.08 16.342C132.936 16.9476 133.552 17.7361 133.929 18.7076L131.684 19.3321C131.457 18.8274 131.124 18.4237 130.684 18.1209C130.256 17.8055 129.765 17.6478 129.212 17.6478C128.419 17.6478 127.746 17.9443 127.193 18.5373C126.639 19.1176 126.362 19.8115 126.362 20.619C126.362 21.4264 126.639 22.1203 127.193 22.7007C127.746 23.2811 128.419 23.5712 129.212 23.5712C129.778 23.5712 130.275 23.4199 130.703 23.1171C131.143 22.8016 131.47 22.3916 131.684 21.8869L133.929 22.5304C133.552 23.5019 132.936 24.2904 132.08 24.896C131.237 25.489 130.281 25.7854 129.212 25.7854Z" fill="#3D3D3D"/>
<path d="M140.366 25.6341L144.952 12.3867H148.896L153.406 25.6341H150.764L149.839 22.871H143.952L143.008 25.6341H140.366ZM144.706 20.5622H149.084L146.933 14.0142L144.706 20.5622Z" fill="#3D3D3D"/>
<path d="M155.196 29.6083L156.8 25.5773L152.667 15.6039H155.253L158.045 22.7386L160.687 15.6039H163.272L157.725 29.6083H155.196Z" fill="#3D3D3D"/>
<path d="M167.55 25.7854C167.135 25.7854 166.726 25.735 166.324 25.6341C165.921 25.5457 165.519 25.3943 165.116 25.1799C164.726 24.9528 164.405 24.6247 164.154 24.1958C163.915 23.7542 163.795 23.2369 163.795 22.6439C163.783 21.5968 164.135 20.8208 164.852 20.3162C165.569 19.7989 166.563 19.5403 167.834 19.5403L170.777 19.5213V18.9915C170.777 18.4868 170.576 18.1146 170.173 17.8749C169.771 17.6352 169.242 17.5153 168.588 17.5153C167.355 17.5153 166.62 17.919 166.381 18.7265L164.041 18.7454C164.053 17.7487 164.493 16.9476 165.362 16.342C166.23 15.7364 167.286 15.4336 168.532 15.4336C169.79 15.4336 170.865 15.7364 171.759 16.342C172.652 16.9476 173.098 17.7361 173.098 18.7076V25.6341H170.777V24.385C170.5 24.7383 170.079 25.06 169.513 25.3502C168.959 25.6404 168.305 25.7854 167.55 25.7854ZM167.758 23.7605C168.513 23.7605 169.205 23.5208 169.834 23.0414C170.463 22.5493 170.777 21.9626 170.777 21.2814H168.286C167.582 21.2814 167.054 21.4138 166.701 21.6788C166.349 21.9437 166.198 22.2844 166.248 22.7007C166.324 23.4072 166.827 23.7605 167.758 23.7605Z" fill="#3D3D3D"/>
<path d="M174.905 25.653V23.1171L180.038 17.8938H174.924V15.6039H183.038V17.9506L177.773 23.3631H183V25.653H174.905Z" fill="#3D3D3D"/>
<path d="M63.5195 42.0979C63.7448 41.8334 63.9049 41.5196 63.9871 41.1816C64.0692 40.8437 64.0711 40.4912 63.9925 40.1524C63.9096 40.8169 63.7509 41.4697 63.5195 42.0979Z" fill="#FF515B"/>
<path d="M29.5902 14.7246L25.4775 27.2907L29.1447 38.6195C29.2917 39.795 29.874 40.8722 30.776 41.6373C31.6132 42.3234 32.6628 42.6954 33.744 42.689C34.8577 42.4197 35.8838 41.868 36.724 41.0868C37.5641 40.3056 38.1901 39.3211 38.5421 38.2277L46.0819 14.6903C46.4391 13.6019 47.0672 12.623 47.9068 11.8459C48.7464 11.0689 49.7697 10.5194 50.88 10.2495C50.3533 10.1168 49.8123 10.0499 49.2692 10.0501H35.9854C34.5635 10.0511 33.1786 10.5041 32.0295 11.344C30.8805 12.1839 30.0265 13.3674 29.5902 14.7246Z" fill="#EA4959"/>
<path d="M11.8789 20.6227C9.731 20.6238 7.66025 19.8196 6.07324 18.368L12.4616 38.2414C12.8994 39.5984 13.7549 40.7813 14.9053 41.62C16.0556 42.4586 17.4414 42.9099 18.8636 42.909H32.216C32.7586 42.9077 33.2991 42.8431 33.8268 42.7165C32.717 42.4454 31.6943 41.8955 30.8549 41.1187C30.0155 40.3418 29.3871 39.3634 29.0287 38.2758L21.4888 14.7315C21.2684 14.0519 20.9422 13.4116 20.5224 12.8342C20.3014 14.9763 19.2944 16.9596 17.6972 18.3988C16.0999 19.8381 14.0262 20.6307 11.8789 20.6227Z" fill="#FF515B"/>
<path d="M23.7574 11.9131C23.7574 14.2692 23.0607 16.5725 21.7555 18.5316C20.4502 20.4907 18.595 22.0176 16.4245 22.9193C14.2539 23.821 11.8655 24.0569 9.56129 23.5972C7.25705 23.1375 5.14046 22.0029 3.4792 20.3369C1.81793 18.6708 0.686594 16.5481 0.228251 14.2372C-0.230091 11.9263 0.00514681 9.53096 0.904218 7.35413C1.80329 5.1773 3.32581 3.31674 5.27926 2.00771C7.2327 0.698689 9.52933 0 11.8787 0C15.0275 0.00545244 18.0457 1.26233 20.2722 3.49528C22.4987 5.72823 23.752 8.75519 23.7574 11.9131ZM6.45001 11.9131C6.45001 12.9899 6.7684 14.0425 7.36491 14.9378C7.96143 15.8331 8.80927 16.531 9.80124 16.943C10.7932 17.3551 11.8847 17.4629 12.9378 17.2528C13.9909 17.0428 14.9582 16.5242 15.7174 15.7628C16.4766 15.0014 16.9936 14.0313 17.2031 12.9752C17.4126 11.9191 17.3051 10.8244 16.8942 9.82958C16.4833 8.83475 15.7875 7.98445 14.8947 7.38621C14.002 6.78797 12.9524 6.46866 11.8787 6.46866C10.4395 6.47048 9.05973 7.04467 8.04204 8.0653C7.02436 9.08593 6.45183 10.4697 6.45001 11.9131Z" fill="#FF515B"/>
<path d="M40.8795 10.0501H36.1225C35.5795 10.0504 35.0385 10.1173 34.5117 10.2495C35.622 10.5194 36.6454 11.0689 37.4849 11.8459C38.3245 12.623 38.9526 13.6019 39.3098 14.6903L46.8497 38.1177C47.0337 36.4605 47.6904 34.8917 48.7411 33.5994C49.7918 32.3071 51.1918 31.3461 52.7733 30.8317C54.3549 30.3172 56.0508 30.2712 57.6578 30.699C59.2647 31.1269 60.7146 32.0104 61.8334 33.2438L55.8701 14.7246C55.4347 13.3669 54.581 12.1827 53.4317 11.3427C52.2825 10.5026 50.897 10.0501 49.4749 10.0501H40.8795Z" fill="#FF515B"/>
<path d="M67.2896 39.087C67.2896 41.4431 66.593 43.7464 65.2877 45.7055C63.9825 47.6646 62.1273 49.1915 59.9567 50.0932C57.7862 50.9949 55.3978 51.2308 53.0935 50.7711C50.7893 50.3114 48.6727 49.1768 47.0114 47.5108C45.3502 45.8447 44.2188 43.722 43.7605 41.4111C43.3021 39.1002 43.5374 36.7048 44.4364 34.528C45.3355 32.3512 46.858 30.4906 48.8115 29.1816C50.7649 27.8726 53.0616 27.1739 55.4109 27.1739C58.5597 27.1793 61.5779 28.4362 63.8044 30.6692C66.031 32.9021 67.2842 35.9291 67.2896 39.087ZM49.9822 39.087C49.9822 40.1638 50.3006 41.2164 50.8971 42.1117C51.4937 43.007 52.3415 43.7048 53.3335 44.1169C54.3254 44.529 55.417 44.6368 56.47 44.4267C57.5231 44.2167 58.4904 43.6981 59.2496 42.9367C60.0088 42.1753 60.5259 41.2052 60.7353 40.1491C60.9448 39.093 60.8373 37.9983 60.4264 37.0035C60.0155 36.0086 59.3197 35.1583 58.427 34.5601C57.5342 33.9619 56.4846 33.6426 55.4109 33.6426C53.9717 33.6444 52.592 34.2186 51.5743 35.2392C50.5566 36.2598 49.9841 37.6436 49.9822 39.087Z" fill="#FF515B"/>
</g>
<defs>
<clipPath id="clip0">
<rect width="184" height="51" fill="white"/>
</clipPath>
</defs>
</svg>
